<?xml version="1.0" standalone="no"?>
<!DOCTYPE svg PUBLIC "-//W3C//DTD SVG 20010904//EN"
 "http://www.w3.org/TR/2001/REC-SVG-20010904/DTD/svg10.dtd">
<svg version="1.0" xmlns="http://www.w3.org/2000/svg"
 width="2480.000000pt" height="3508.000000pt" viewBox="0 0 2480.000000 3508.000000"
 preserveAspectRatio="xMidYMid meet">

<g transform="translate(0.000000,3508.000000) scale(0.100000,-0.100000)"
fill="#000000" stroke="none">
<path d="M0 23375 l0 -11706 152 2 153 1 0 -4954 0 -4953 -152 -3 -153 -3 0
-879 0 -880 12400 0 12400 0 0 17540 0 17540 -12400 0 -12400 0 0 -11705z
m21080 1923 c3 -2 -8 -230 -25 -508 l-30 -505 -55 -51 c-30 -28 -145 -131
-255 -229 -110 -98 -217 -194 -239 -213 -24 -22 -34 -37 -27 -41 6 -4 130 -25
276 -46 247 -37 265 -41 265 -60 0 -11 -16 -270 -35 -575 -19 -305 -35 -555
-35 -555 0 -1 -189 29 -420 65 l-421 65 -182 345 c-101 190 -249 469 -329 620
-80 151 -154 291 -163 311 l-17 35 77 165 c43 90 138 290 213 444 122 255 343
719 413 871 l28 60 477 -98 c263 -54 481 -99 484 -100z m-10230 -878 l0 -950
410 0 410 0 0 -45 0 -45 -442 0 -443 0 0 995 0 995 33 0 32 0 0 -950z m1480
-45 l0 -995 -32 0 -33 0 0 995 0 995 33 0 32 0 0 -995z m1342 984 c174 -37
314 -188 369 -396 16 -59 21 -108 21 -203 -1 -143 -21 -238 -72 -341 -39 -75
-126 -170 -192 -207 -27 -15 -46 -31 -44 -37 2 -5 78 -184 170 -397 91 -213
166 -390 166 -393 0 -3 -17 -5 -37 -5 l-38 0 -162 388 -161 387 -41 0 c-23 -1
-151 -2 -286 -3 l-245 -2 0 -385 0 -385 -30 0 -30 0 0 995 0 995 280 0 c169 0
300 -4 332 -11z m1988 -34 l0 -45 -247 -2 -248 -3 -3 -947 -2 -948 -30 0 -30
0 -2 948 -3 947 -252 3 -252 2 2 45 1 45 533 0 533 0 0 -45z m1550 0 l0 -45
-452 -2 -453 -3 -3 -427 -2 -428 420 0 420 0 0 -45 0 -45 -417 -2 -418 -3 -3
-427 -2 -428 460 0 460 0 0 -45 0 -45 -490 0 -490 0 0 995 0 995 485 0 485 0
0 -45z m963 -367 c124 -227 313 -575 420 -773 239 -443 335 -617 348 -629 5
-6 9 327 9 902 l0 912 33 0 32 0 0 -995 0 -996 -33 3 c-33 3 -36 8 -239 383
-112 209 -251 463 -307 565 -57 102 -185 337 -285 523 -101 185 -187 337 -192
337 -5 0 -9 -375 -9 -905 l0 -905 -30 0 -30 0 0 995 0 995 29 0 c27 0 38 -17
254 -412z m-1423 -2118 l0 -210 220 0 220 0 0 210 0 210 55 0 55 0 0 -480 0
-480 -55 0 -55 0 0 210 0 210 -220 0 -220 0 0 -210 0 -210 -55 0 -55 0 0 480
0 480 55 0 55 0 0 -210z m1010 -113 c0 -344 4 -383 50 -447 36 -51 91 -73 176
-68 63 3 77 7 110 34 83 67 94 124 94 512 l0 292 56 0 56 0 -4 -337 c-5 -371
-9 -399 -69 -495 -71 -111 -202 -159 -337 -124 -107 27 -170 84 -218 196 -17
41 -19 80 -24 403 l-5 357 58 0 57 0 0 -323z m1273 312 c151 -42 208 -271 99
-401 -21 -25 -24 -32 -12 -36 31 -10 98 -88 109 -127 40 -145 -19 -299 -137
-357 -44 -21 -61 -23 -249 -26 l-203 -4 0 481 0 481 178 0 c97 0 194 -5 215
-11z m-17773 -10949 l0 -210 26 0 c35 0 117 46 141 78 62 85 54 193 -19 266
-27 27 -36 42 -28 50 14 14 67 -38 91 -89 26 -56 25 -152 -2 -210 -42 -90
-141 -142 -253 -133 -137 11 -236 111 -236 238 0 125 97 217 233 219 l47 1 0
-210z m-250 -509 c0 -14 9 -41 21 -60 50 -82 107 -101 311 -101 92 0 148 -4
148 -10 0 -6 -90 -10 -250 -10 -160 0 -250 4 -250 10 0 6 20 10 45 10 25 0 45
3 45 8 0 4 -15 19 -33 34 -40 31 -67 83 -67 127 0 23 4 29 15 25 8 -4 15 -18
15 -33z m480 -536 c0 -11 -12 -15 -46 -15 l-45 0 35 -33 c43 -41 56 -73 56
-137 0 -86 -32 -137 -105 -171 -34 -16 -66 -19 -217 -19 -152 0 -178 2 -178
15 0 13 26 15 173 15 148 0 178 3 214 20 124 56 117 233 -11 291 -35 16 -67
19 -208 19 -143 0 -168 2 -168 15 0 13 34 15 250 15 216 0 250 -2 250 -15z m0
-716 c0 -62 -6 -76 -44 -97 -25 -14 -66 -17 -228 -20 l-197 -4 -3 -36 c-4 -51
-28 -55 -28 -3 l0 40 -72 3 c-100 4 -105 26 -6 30 l73 3 3 63 c4 84 26 79 30
-6 l3 -62 184 0 c101 0 195 4 209 10 14 5 33 21 42 36 15 22 16 32 7 67 -6 23
-9 46 -6 51 12 19 33 -29 33 -75z m-2 -476 c2 -9 -10 -13 -42 -13 -25 0 -46
-3 -46 -6 0 -3 14 -17 31 -32 41 -33 59 -78 59 -142 0 -66 -20 -111 -61 -142
-56 -42 -92 -48 -270 -48 -144 0 -169 2 -169 15 0 13 25 15 168 15 160 0 170
1 219 26 104 51 122 167 40 250 -54 53 -103 64 -287 64 -119 0 -140 2 -140 15
0 13 32 15 247 13 186 -2 247 -6 251 -15z m-708 -888 l0 -225 165 0 165 0 0
185 c0 158 2 185 15 185 13 0 15 -27 15 -185 l0 -185 175 0 c149 0 175 -2 175
-15 0 -13 -47 -15 -365 -15 l-365 0 0 240 c0 153 4 240 10 240 6 0 10 -82 10
-225z m235 -1058 c7 -26 23 -59 36 -73 49 -53 72 -59 258 -64 127 -4 176 -8
179 -17 3 -10 -51 -13 -247 -13 -223 0 -251 2 -251 16 0 13 9 15 45 12 25 -2
45 0 45 4 0 4 -14 16 -30 28 -37 26 -70 88 -70 130 0 46 21 32 35 -23z m473
-514 c2 -9 -10 -13 -44 -13 l-48 0 36 -37 c45 -46 58 -79 58 -144 0 -65 -20
-110 -61 -141 -56 -42 -92 -48 -270 -48 -144 0 -169 2 -169 15 0 13 25 15 168
15 160 0 170 1 219 26 104 51 122 167 40 250 -54 53 -103 64 -287 64 -119 0
-140 2 -140 15 0 13 32 15 247 13 186 -2 247 -6 251 -15z m-156 -695 c55 -16
123 -79 143 -133 26 -67 17 -160 -21 -221 -84 -136 -310 -148 -417 -23 -54 62
-70 147 -46 230 28 93 127 159 237 159 36 0 82 -5 104 -12z m-324 -793 l242
-135 120 0 c100 0 120 -3 120 -15 0 -13 -20 -15 -124 -15 l-124 0 -241 -135
c-133 -74 -243 -135 -245 -135 -2 0 -2 8 1 18 2 11 90 66 224 141 120 68 219
127 219 130 0 3 -98 61 -218 128 -119 67 -218 129 -220 137 -2 9 -2 16 0 16 2
0 113 -61 246 -135z m252 -1351 l0 -216 31 6 c107 21 179 107 179 211 -1 41
-31 104 -69 139 -33 32 -39 46 -18 46 17 0 71 -57 91 -97 22 -44 21 -147 -3
-198 -23 -50 -74 -99 -126 -121 -86 -36 -226 -13 -294 49 -38 35 -71 115 -71
172 1 129 100 216 258 224 l22 1 0 -216z m230 -557 c0 -106 -26 -117 -280
-117 l-190 0 0 -40 c0 -29 -4 -40 -15 -40 -11 0 -15 11 -15 40 l0 39 -72 3
c-100 4 -105 26 -6 30 l73 3 3 63 c2 46 7 62 17 62 12 0 15 -15 15 -65 l0 -65
184 0 c102 0 196 4 210 10 14 5 33 21 42 36 15 22 16 32 7 67 -6 23 -9 46 -6
51 12 19 33 -30 33 -77z m0 -477 c0 -5 -22 -10 -50 -10 -27 0 -50 -4 -50 -8 0
-5 13 -18 29 -29 93 -69 97 -288 5 -323 -106 -41 -171 25 -215 218 -13 58 -30
103 -43 119 -22 25 -24 26 -66 12 -57 -18 -82 -54 -88 -123 -6 -71 23 -135 73
-162 35 -18 47 -44 21 -44 -28 0 -82 47 -103 90 -46 90 -18 213 57 252 30 16
60 18 232 18 125 0 198 -4 198 -10z m-230 -849 c0 -116 4 -212 9 -215 18 -11
105 28 140 63 80 80 80 202 -1 283 -47 47 -40 75 10 33 100 -84 97 -270 -6
-355 -117 -97 -319 -70 -395 52 -33 54 -45 133 -28 196 24 86 120 150 229 151
l42 1 0 -209z m-250 -508 c0 -36 36 -95 73 -120 48 -33 107 -42 265 -43 119 0
142 -2 142 -15 0 -13 -34 -15 -250 -15 -216 0 -250 2 -250 15 0 11 12 15 45
15 25 0 45 2 45 5 0 3 -16 20 -36 38 -41 35 -64 81 -64 126 0 23 4 29 15 25 8
-4 15 -17 15 -31z m-87 -509 c4 -4 -18 -31 -47 -60 -73 -71 -100 -140 -94
-244 4 -59 11 -87 33 -128 133 -245 505 -234 624 18 20 44 25 70 25 131 -1 94
-32 166 -99 228 -25 23 -45 46 -45 51 0 48 120 -76 149 -154 25 -69 28 -169 6
-244 -47 -156 -237 -262 -414 -232 -197 33 -325 190 -307 379 7 85 52 178 108
226 43 36 50 40 61 29z"/>
<path d="M20088 25283 c-518 -1086 -602 -1267 -588 -1258 5 3 158 126 338 273
180 147 516 420 746 607 330 268 414 341 399 347 -22 8 -796 168 -816 168 -8
0 -42 -59 -79 -137z"/>
<path d="M20789 25038 c-225 -184 -478 -390 -879 -717 -118 -97 -252 -206
-298 -243 -46 -38 -76 -68 -67 -68 39 0 1401 292 1411 303 12 12 71 893 62
903 -3 2 -106 -78 -229 -178z"/>
<path d="M20675 24219 c-93 -21 -386 -84 -650 -140 -513 -107 -511 -107 -503
-115 3 -3 165 -43 359 -89 195 -47 380 -91 412 -99 l57 -14 268 240 c147 133
271 245 277 249 18 17 -50 7 -220 -32z"/>
<path d="M19532 23890 c1 -5 82 -85 179 -177 96 -93 392 -377 658 -632 265
-254 485 -460 489 -457 3 4 8 37 10 74 2 37 16 254 32 482 15 228 25 420 23
425 -2 6 -130 29 -284 53 -214 32 -376 65 -682 137 -221 53 -408 97 -415 100
-8 3 -12 1 -10 -5z"/>
<path d="M19536 23808 c47 -91 502 -954 540 -1025 36 -65 50 -83 72 -87 76
-16 665 -106 669 -102 5 5 -131 137 -517 506 -231 221 -437 420 -656 632 -61
59 -114 108 -118 108 -3 0 1 -15 10 -32z"/>
<path d="M13120 24766 l0 -517 283 3 282 3 67 33 c110 54 190 165 224 309 23
96 15 305 -15 387 -31 87 -63 137 -126 194 -97 89 -125 95 -442 100 l-273 4 0
-516z"/>
<path d="M18755 22918 c-3 -8 -4 -70 -3 -139 l3 -124 115 0 c95 0 121 3 143
18 81 53 89 167 17 232 -19 17 -39 20 -146 24 -100 2 -125 0 -129 -11z"/>
<path d="M18750 22380 l0 -160 138 0 c154 0 184 10 222 72 29 47 27 134 -3
179 -38 58 -74 69 -224 69 l-133 0 0 -160z"/>
<path d="M1148 12260 c-117 -35 -170 -154 -119 -267 22 -47 85 -98 134 -108
18 -4 40 -9 50 -11 16 -5 17 9 17 195 l0 201 -27 -1 c-16 0 -40 -4 -55 -9z"/>
<path d="M1122 6654 c-78 -39 -107 -87 -107 -179 0 -61 4 -78 27 -112 77 -117
282 -126 377 -17 82 92 61 222 -47 299 -38 26 -54 30 -120 33 -67 3 -84 0
-130 -24z"/>
<path d="M1173 4729 c-96 -18 -154 -76 -161 -164 -2 -29 1 -68 7 -87 22 -67
116 -137 184 -138 l27 0 0 194 c0 107 -3 197 -7 199 -5 2 -27 0 -50 -4z"/>
<path d="M1210 3504 c0 -14 51 -226 61 -251 37 -98 147 -109 185 -18 52 126
-54 274 -198 275 -27 0 -48 -3 -48 -6z"/>
<path d="M1135 2834 c-77 -28 -125 -95 -125 -174 0 -102 73 -185 183 -205 l37
-7 0 201 0 201 -27 -1 c-16 0 -46 -7 -68 -15z"/>
</g>
</svg>
